<mxfile host="65bd71144e">
    <diagram id="de563XXC5umlOddY9izi" name="Page-1">
        <mxGraphModel dx="1074" dy="918" grid="1" gridSize="10" guides="1" tooltips="1" connect="1" arrows="1" fold="1" page="1" pageScale="1" pageWidth="2336" pageHeight="1654" math="0" shadow="0">
            <root>
                <mxCell id="0"/>
                <mxCell id="1" parent="0"/>
                <mxCell id="231" value="&lt;font color=&quot;#000000&quot;&gt;Kistl&lt;/font&gt;" style="rounded=0;whiteSpace=wrap;html=1;strokeWidth=1;fontColor=#808080;align=left;labelPosition=center;verticalLabelPosition=middle;verticalAlign=top;horizontal=1;" parent="1" vertex="1">
                    <mxGeometry x="80" y="50" width="840" height="880" as="geometry"/>
                </mxCell>
                <mxCell id="228" value="EC2 docker compose,&lt;br&gt;ECS Docker image,&lt;br&gt;Elastic Beanstalk" style="rounded=0;whiteSpace=wrap;html=1;dashed=1;align=left;labelPosition=center;verticalLabelPosition=top;verticalAlign=bottom;strokeWidth=2;strokeColor=#999999;" parent="1" vertex="1">
                    <mxGeometry x="290" y="420" width="511" height="240" as="geometry"/>
                </mxCell>
                <mxCell id="220" style="edgeStyle=orthogonalEdgeStyle;rounded=0;orthogonalLoop=1;jettySize=auto;html=1;" parent="1" source="29" target="243" edge="1">
                    <mxGeometry relative="1" as="geometry">
                        <Array as="points"/>
                        <mxPoint x="440" y="320" as="targetPoint"/>
                    </mxGeometry>
                </mxCell>
                <mxCell id="239" value="REST/swagger" style="edgeLabel;html=1;align=center;verticalAlign=top;resizable=0;points=[];" parent="220" vertex="1" connectable="0">
                    <mxGeometry x="-0.5364" y="-4" relative="1" as="geometry">
                        <mxPoint y="-3.99" as="offset"/>
                    </mxGeometry>
                </mxCell>
                <mxCell id="29" value="&lt;font color=&quot;#000000&quot;&gt;Mobile App&lt;br&gt;iOS, Android&lt;br&gt;&lt;/font&gt;" style="verticalLabelPosition=bottom;verticalAlign=top;html=1;shadow=0;dashed=0;strokeWidth=1;shape=mxgraph.android.phone2;strokeColor=#A50040;fillColor=#d80073;fontColor=#ffffff;" parent="1" vertex="1">
                    <mxGeometry x="260" y="180.005" width="46.41" height="83" as="geometry"/>
                </mxCell>
                <mxCell id="212" style="edgeStyle=orthogonalEdgeStyle;rounded=0;orthogonalLoop=1;jettySize=auto;html=1;" parent="1" source="80" target="91" edge="1">
                    <mxGeometry relative="1" as="geometry">
                        <Array as="points">
                            <mxPoint x="395" y="490"/>
                        </Array>
                    </mxGeometry>
                </mxCell>
                <mxCell id="221" style="edgeStyle=orthogonalEdgeStyle;rounded=0;orthogonalLoop=1;jettySize=auto;html=1;" parent="1" source="80" target="7" edge="1">
                    <mxGeometry relative="1" as="geometry">
                        <Array as="points">
                            <mxPoint x="718" y="508"/>
                        </Array>
                    </mxGeometry>
                </mxCell>
                <mxCell id="241" value="HTTP" style="edgeLabel;html=1;align=center;verticalAlign=middle;resizable=0;points=[];" parent="221" vertex="1" connectable="0">
                    <mxGeometry x="0.2116" y="-4" relative="1" as="geometry">
                        <mxPoint x="3.5" y="70.07" as="offset"/>
                    </mxGeometry>
                </mxCell>
                <mxCell id="222" value="" style="edgeStyle=orthogonalEdgeStyle;rounded=0;orthogonalLoop=1;jettySize=auto;html=1;" parent="1" source="80" target="23" edge="1">
                    <mxGeometry x="0.2755" relative="1" as="geometry">
                        <Array as="points">
                            <mxPoint x="552" y="528"/>
                        </Array>
                        <mxPoint as="offset"/>
                    </mxGeometry>
                </mxCell>
                <mxCell id="80" value="Kistl&lt;br&gt;Web, REST API, CMS" style="outlineConnect=0;fontColor=#232F3E;gradientColor=none;fillColor=#D86613;strokeColor=none;dashed=0;verticalLabelPosition=bottom;verticalAlign=top;align=center;html=1;fontSize=12;fontStyle=0;aspect=fixed;pointerEvents=1;shape=mxgraph.aws4.instances;" parent="1" vertex="1">
                    <mxGeometry x="413" y="448" width="100" height="100" as="geometry"/>
                </mxCell>
                <mxCell id="91" value="Database&lt;br&gt;MySQL" style="outlineConnect=0;fontColor=#232F3E;gradientColor=#4D72F3;gradientDirection=north;fillColor=#3334B9;strokeColor=#ffffff;dashed=0;verticalLabelPosition=bottom;verticalAlign=top;align=center;html=1;fontSize=12;fontStyle=0;aspect=fixed;shape=mxgraph.aws4.resourceIcon;resIcon=mxgraph.aws4.aurora;" parent="1" vertex="1">
                    <mxGeometry x="356" y="707" width="78" height="78" as="geometry"/>
                </mxCell>
                <mxCell id="246" style="edgeStyle=orthogonalEdgeStyle;rounded=0;orthogonalLoop=1;jettySize=auto;html=1;" parent="1" source="23" target="30" edge="1">
                    <mxGeometry relative="1" as="geometry">
                        <Array as="points">
                            <mxPoint x="480" y="746"/>
                            <mxPoint x="480" y="860"/>
                            <mxPoint x="870" y="860"/>
                            <mxPoint x="870" y="222"/>
                        </Array>
                    </mxGeometry>
                </mxCell>
                <mxCell id="247" style="edgeStyle=orthogonalEdgeStyle;rounded=0;orthogonalLoop=1;jettySize=auto;html=1;entryX=-0.008;entryY=0.568;entryDx=0;entryDy=0;entryPerimeter=0;" parent="1" source="23" target="29" edge="1">
                    <mxGeometry relative="1" as="geometry">
                        <Array as="points">
                            <mxPoint x="480" y="746"/>
                            <mxPoint x="480" y="860"/>
                            <mxPoint x="120" y="860"/>
                            <mxPoint x="120" y="227"/>
                        </Array>
                    </mxGeometry>
                </mxCell>
                <mxCell id="23" value="Notifications&lt;br&gt;EMail, FCM" style="outlineConnect=0;fontColor=#232F3E;gradientColor=#4D72F3;gradientDirection=north;fillColor=#3334B9;strokeColor=#ffffff;dashed=0;verticalLabelPosition=bottom;verticalAlign=top;align=center;html=1;fontSize=12;fontStyle=0;aspect=fixed;shape=mxgraph.aws4.resourceIcon;resIcon=mxgraph.aws4.simple_email_service;" parent="1" vertex="1">
                    <mxGeometry x="513" y="707" width="78" height="78" as="geometry"/>
                </mxCell>
                <mxCell id="7" value="S3 store&lt;br&gt;Media" style="outlineConnect=0;fontColor=#232F3E;gradientColor=none;fillColor=#277116;strokeColor=none;dashed=0;verticalLabelPosition=bottom;verticalAlign=top;align=center;html=1;fontSize=12;fontStyle=0;aspect=fixed;pointerEvents=1;shape=mxgraph.aws4.bucket;" parent="1" vertex="1">
                    <mxGeometry x="680" y="708" width="75" height="78" as="geometry"/>
                </mxCell>
                <mxCell id="217" style="edgeStyle=orthogonalEdgeStyle;rounded=0;orthogonalLoop=1;jettySize=auto;html=1;exitX=0.87;exitY=0.65;exitDx=0;exitDy=0;exitPerimeter=0;" parent="1" source="216" target="30" edge="1">
                    <mxGeometry relative="1" as="geometry">
                        <mxPoint x="600" y="110" as="sourcePoint"/>
                    </mxGeometry>
                </mxCell>
                <mxCell id="218" style="edgeStyle=orthogonalEdgeStyle;rounded=0;orthogonalLoop=1;jettySize=auto;html=1;exitX=0.14;exitY=0.65;exitDx=0;exitDy=0;exitPerimeter=0;entryX=0.509;entryY=0.105;entryDx=0;entryDy=0;entryPerimeter=0;" parent="1" source="216" target="29" edge="1">
                    <mxGeometry relative="1" as="geometry">
                        <mxPoint x="414" y="105" as="sourcePoint"/>
                        <mxPoint x="285" y="130" as="targetPoint"/>
                    </mxGeometry>
                </mxCell>
                <mxCell id="216" value="User" style="verticalLabelPosition=bottom;html=1;verticalAlign=top;align=center;strokeColor=none;fillColor=#00BEF2;shape=mxgraph.azure.user;" parent="1" vertex="1">
                    <mxGeometry x="439.25" y="80" width="47.5" height="50" as="geometry"/>
                </mxCell>
                <mxCell id="226" style="edgeStyle=orthogonalEdgeStyle;rounded=0;orthogonalLoop=1;jettySize=auto;html=1;" parent="1" source="30" target="243" edge="1">
                    <mxGeometry relative="1" as="geometry">
                        <Array as="points"/>
                    </mxGeometry>
                </mxCell>
                <mxCell id="240" value="REST/swagger" style="edgeLabel;html=1;align=center;verticalAlign=top;resizable=0;points=[];" parent="226" vertex="1" connectable="0">
                    <mxGeometry x="-0.7482" relative="1" as="geometry">
                        <mxPoint x="-30" as="offset"/>
                    </mxGeometry>
                </mxCell>
                <mxCell id="30" value="&lt;font color=&quot;#000000&quot;&gt;Web App&lt;/font&gt;" style="pointerEvents=1;shadow=0;dashed=0;html=1;strokeColor=#006EAF;fillColor=#1ba1e2;aspect=fixed;labelPosition=center;verticalLabelPosition=bottom;verticalAlign=top;align=center;outlineConnect=0;shape=mxgraph.vvd.web_browser;fontColor=#ffffff;" parent="1" vertex="1">
                    <mxGeometry x="570" y="183.88" width="105.99" height="75.25" as="geometry"/>
                </mxCell>
                <mxCell id="244" style="edgeStyle=orthogonalEdgeStyle;rounded=0;orthogonalLoop=1;jettySize=auto;html=1;" parent="1" source="243" target="80" edge="1">
                    <mxGeometry relative="1" as="geometry"/>
                </mxCell>
                <mxCell id="245" style="edgeStyle=orthogonalEdgeStyle;rounded=0;orthogonalLoop=1;jettySize=auto;html=1;exitX=0.875;exitY=0.5;exitDx=0;exitDy=0;exitPerimeter=0;" parent="1" source="243" target="7" edge="1">
                    <mxGeometry relative="1" as="geometry">
                        <Array as="points">
                            <mxPoint x="830" y="350"/>
                            <mxPoint x="830" y="747"/>
                        </Array>
                    </mxGeometry>
                </mxCell>
                <mxCell id="250" style="edgeStyle=orthogonalEdgeStyle;rounded=0;orthogonalLoop=1;jettySize=auto;html=1;exitX=0.058;exitY=0.513;exitDx=0;exitDy=0;exitPerimeter=0;" parent="1" source="243" target="248" edge="1">
                    <mxGeometry relative="1" as="geometry">
                        <Array as="points">
                            <mxPoint x="410" y="350"/>
                            <mxPoint x="150" y="350"/>
                            <mxPoint x="150" y="747"/>
                        </Array>
                    </mxGeometry>
                </mxCell>
                <mxCell id="243" value="AWS&lt;br&gt;CloudFront" style="ellipse;shape=cloud;whiteSpace=wrap;html=1;fillColor=#dae8fc;strokeColor=#6c8ebf;" parent="1" vertex="1">
                    <mxGeometry x="403" y="310" width="120" height="80" as="geometry"/>
                </mxCell>
                <mxCell id="248" value="S3 store&lt;br&gt;CMS" style="outlineConnect=0;fontColor=#232F3E;gradientColor=none;fillColor=#277116;strokeColor=none;dashed=0;verticalLabelPosition=bottom;verticalAlign=top;align=center;html=1;fontSize=12;fontStyle=0;aspect=fixed;pointerEvents=1;shape=mxgraph.aws4.bucket;" parent="1" vertex="1">
                    <mxGeometry x="192" y="708" width="75" height="78" as="geometry"/>
                </mxCell>
                <mxCell id="251" value="S3 store&lt;br&gt;Landing Page" style="outlineConnect=0;fontColor=#232F3E;gradientColor=none;fillColor=#277116;strokeColor=none;dashed=0;verticalLabelPosition=bottom;verticalAlign=top;align=center;html=1;fontSize=12;fontStyle=0;aspect=fixed;pointerEvents=1;shape=mxgraph.aws4.bucket;" vertex="1" parent="1">
                    <mxGeometry x="192" y="573" width="75" height="78" as="geometry"/>
                </mxCell>
                <mxCell id="253" style="edgeStyle=orthogonalEdgeStyle;rounded=0;orthogonalLoop=1;jettySize=auto;html=1;exitX=0.067;exitY=0.7;exitDx=0;exitDy=0;exitPerimeter=0;" edge="1" parent="1" source="243" target="251">
                    <mxGeometry relative="1" as="geometry">
                        <Array as="points">
                            <mxPoint x="230" y="366"/>
                        </Array>
                        <mxPoint x="413" y="360" as="sourcePoint"/>
                        <mxPoint x="202.00663912658592" y="757" as="targetPoint"/>
                    </mxGeometry>
                </mxCell>
            </root>
        </mxGraphModel>
    </diagram>
</mxfile>